<?xml version="1.0" encoding="UTF-8" standalone="no"?>
<!-- Created with Inkscape (http://www.inkscape.org/) -->

<svg
   width="16"
   height="16"
   viewBox="0 0 16 16"
   version="1.1"
   id="svg1"
   xml:space="preserve"
   inkscape:version="1.3.2 (091e20ef0f, 2023-11-25)"
   sodipodi:docname="dialogue_choice_icon.svg"
   xmlns:inkscape="http://www.inkscape.org/namespaces/inkscape"
   xmlns:sodipodi="http://sodipodi.sourceforge.net/DTD/sodipodi-0.dtd"
   xmlns="http://www.w3.org/2000/svg"
   xmlns:svg="http://www.w3.org/2000/svg"><sodipodi:namedview
     id="namedview1"
     pagecolor="#ffffff"
     bordercolor="#000000"
     borderopacity="0.25"
     inkscape:showpageshadow="2"
     inkscape:pageopacity="0.0"
     inkscape:pagecheckerboard="0"
     inkscape:deskcolor="#d1d1d1"
     inkscape:document-units="px"
     showgrid="true"
     inkscape:zoom="16"
     inkscape:cx="-4.09375"
     inkscape:cy="-7.5625"
     inkscape:window-width="2516"
     inkscape:window-height="1572"
     inkscape:window-x="44"
     inkscape:window-y="0"
     inkscape:window-maximized="1"
     inkscape:current-layer="layer1"><inkscape:grid
       id="grid3"
       units="px"
       originx="0"
       originy="0"
       spacingx="1"
       spacingy="1"
       empcolor="#0099e5"
       empopacity="0.30196078"
       color="#0099e5"
       opacity="0.14901961"
       empspacing="5"
       dotted="false"
       gridanglex="30"
       gridanglez="30"
       visible="true" /></sodipodi:namedview><defs
     id="defs1" /><g
     inkscape:label="Layer 1"
     inkscape:groupmode="layer"
     id="layer1"><rect
       style="fill:#8d19d7;stroke:none;stroke-width:1.19535;stroke-linecap:round;stroke-linejoin:round;stroke-dasharray:none;stroke-opacity:1;paint-order:stroke fill markers"
       id="rect4"
       width="3"
       height="2"
       x="7"
       y="14" /><rect
       style="fill:#8d19d7;stroke:none;stroke-width:1.69048;stroke-linecap:round;stroke-linejoin:round;stroke-dasharray:none;stroke-opacity:1;paint-order:stroke fill markers"
       id="rect5"
       width="3"
       height="4"
       x="7"
       y="9" /><path
       id="path6"
       style="fill:#8d19d7;stroke:none;stroke-width:1;stroke-linecap:round;stroke-linejoin:round;stroke-dasharray:none;stroke-opacity:1;paint-order:stroke fill markers"
       d="m 8.0001914,0 c -3.305079,0 -6,2.694921 -6,6 6.442e-4,0.00521 -6.579e-4,-0.00521 0,0 H 4.986168 c -6.647e-4,-0.00521 0.014661,0.00521 0.014023,0 0,-1.6654837 1.3345163,-3 3,-3 1.6654837,0 2.9999996,1.3345163 2.9999996,3 0,1.6654837 -1.3345159,3 -2.9999996,3 v 3 c 3.3050786,0 5.9999996,-2.694921 5.9999996,-6 0,-3.305079 -2.694921,-6 -5.9999996,-6 z"
       sodipodi:nodetypes="sccccssccss" /><path
       id="rect6"
       style="fill:#8d19d7;stroke-width:1.464;stroke-linecap:round;stroke-linejoin:round;paint-order:stroke fill markers"
       d="m 2.0001914,6 h 3 c 0,1 3.1e-6,2 -1.4980469,2 C 2.0001914,8 1.9982383,7 2.0001914,6 Z"
       sodipodi:nodetypes="ccsc" /></g></svg>
